<svg width="100" height="100" viewBox="0 0 100 100" fill="none" xmlns="http://www.w3.org/2000/svg">
<rect width="46.755" height="46.755" transform="matrix(0.860287 0.509811 -0.860287 0.509811 49.7442 3)" fill="#0D6EFD" stroke="black" stroke-width="3" stroke-linejoin="round"/>
<path d="M51.4648 19.9104L63.1517 26.8361L76.5593 18.8908L78.2798 19.9104L64.8723 27.8558L76.5593 34.7815L74.8387 35.8011L63.1517 28.8754L51.4648 35.8011L63.1517 42.7269L61.4312 43.7465L49.7442 36.8208L38.0572 43.7465L36.3367 42.7269L48.0236 35.8011L36.3367 28.8754L24.6497 35.8011L22.9291 34.7815L34.6161 27.8558L21.2086 19.9104L22.9291 18.8908L36.3367 26.8361L48.0236 19.9104L34.6161 11.965L36.3367 10.9454L49.7442 18.8908L63.1517 10.9454L64.8723 11.965L51.4648 19.9104ZM49.7442 20.93L38.0572 27.8558L49.7442 34.7815L61.4312 27.8558L49.7442 20.93Z" fill="black"/>
<rect width="46.755" height="46.755" transform="matrix(-0.0113659 0.999935 -0.871652 -0.490125 49.2856 50.8349)" fill="#DC3545" stroke="black" stroke-width="3" stroke-linejoin="round"/>
<path d="M35.501 60.7801L35.3466 74.3642L48.9313 82.0028L48.9085 84.0026L35.3239 76.3641L35.1695 89.9482L33.4262 88.9679L33.5806 75.3838L21.7392 68.7255L21.5848 82.3096L19.8415 81.3293L19.9959 67.7453L8.15454 61.0869L8.17728 59.0871L20.0186 65.7454L20.173 52.1613L8.33168 45.503L8.35441 43.5031L20.1958 50.1614L20.3729 34.5775L22.1162 35.5577L21.9391 51.1417L33.7804 57.8L33.9576 42.216L35.7009 43.1963L35.5237 58.7803L49.1084 66.4188L49.0857 68.4187L35.501 60.7801ZM33.7577 59.7999L21.9163 53.1415L21.7619 66.7256L33.6033 73.384L33.7577 59.7999Z" fill="black"/>
<rect width="46.755" height="46.755" transform="matrix(0.0113659 0.999935 0.871652 -0.490125 49.7144 50.8349)" fill="#E4B016" stroke="black" stroke-width="3" stroke-linejoin="round"/>
<path d="M63.499 60.7801L63.6534 74.3642L50.0687 82.0028L50.0915 84.0026L63.6761 76.3641L63.8305 89.9482L65.5738 88.9679L65.4194 75.3838L77.2608 68.7255L77.4152 82.3096L79.1585 81.3293L79.0041 67.7453L90.8455 61.0869L90.8227 59.0871L78.9814 65.7454L78.827 52.1613L90.6683 45.503L90.6456 43.5031L78.8042 50.1614L78.6271 34.5775L76.8838 35.5577L77.0609 51.1417L65.2196 57.8L65.0424 42.216L63.2991 43.1963L63.4763 58.7803L49.8916 66.4188L49.9143 68.4187L63.499 60.7801ZM65.2423 59.7999L77.0837 53.1415L77.2381 66.7256L65.3967 73.384L65.2423 59.7999Z" fill="black"/>
</svg>
