<svg width="20" height="20" viewBox="0 0 20 20" fill="none" xmlns="http://www.w3.org/2000/svg">
<path d="M10.0513 0.222194L18.5079 5.11985L10.0513 10.0175L1.59468 5.11985L10.0513 0.222194Z" fill="#0D6EFD"/>
<path d="M9.95488 10.0509L9.84315 19.6571L1.27481 14.9485L1.38653 5.34235L9.95488 10.0509Z" fill="#DC3545"/>
<path d="M10.045 10.0509L10.1568 19.6571L18.7251 14.9485L18.6134 5.34235L10.045 10.0509Z" fill="#E4B016"/>
<path d="M9.80916 0.0498302C9.95986 -0.0213522 10.1822 -0.016274 10.3227 0.06508L18.7793 4.96268L18.8055 4.97954C18.8773 5.03045 18.9037 5.09542 18.8858 5.15692C18.8871 5.16786 18.8881 5.17928 18.8883 5.19123L19 14.7974C19.002 14.9676 18.8805 15.1733 18.7288 15.2567L10.1605 19.9653C10.1008 19.9981 10.0454 20.0066 9.9999 19.9952C9.95445 20.0066 9.89914 19.998 9.83954 19.9653L1.27125 15.2567C1.11943 15.1733 0.998044 14.9676 1.00002 14.7974L1.11172 5.19123C1.11317 5.0682 1.17869 4.99767 1.27227 4.9994C1.28676 4.98642 1.30377 4.97405 1.3234 4.96268L9.78 0.06508L9.80916 0.0498302ZM6.99056 17.7794L9.57181 19.1978L9.60056 16.7147L7.01951 15.2964L6.99056 17.7794ZM10.399 16.7149L10.428 19.1978L13.0092 17.7792L12.9805 15.2964L10.399 16.7149ZM4.1344 16.2096L6.62407 17.5779L6.65302 15.095L4.16335 13.7269L4.1344 16.2096ZM13.3472 15.095L13.3757 17.5777L15.8654 16.2096L15.8367 13.7269L13.3472 15.095ZM7.02424 14.8855L9.60528 16.3039L9.63772 13.5128L7.05668 12.0944L7.02424 14.8855ZM10.3619 13.5128L10.3943 16.3039L12.9758 14.8855L12.9433 12.0944L10.3619 13.5128ZM1.55335 14.7914L3.7679 16.0084L3.79685 13.5255L1.5821 12.3083L1.55335 14.7914ZM16.2031 13.5255L16.2319 16.0084L18.4466 14.7914L18.4177 12.3083L16.2031 13.5255ZM4.16827 13.316L6.65774 14.684L6.69018 11.8929L4.20071 10.5249L4.16827 13.316ZM13.3098 11.8929L13.3423 14.684L15.8319 13.316L15.7993 10.5249L13.3098 11.8929ZM1.58682 11.8973L3.80158 13.1145L3.83402 10.3234L1.61926 9.10622L1.58682 11.8973ZM16.1658 10.3234L16.1984 13.1145L18.413 11.8973L18.3805 9.10622L16.1658 10.3234ZM7.0616 11.6834L9.64265 13.1019L9.67632 10.208L7.09507 8.78958L7.0616 11.6834ZM10.3235 10.208L10.3569 13.1019L12.9384 11.6834L12.9047 8.78938L10.3235 10.208ZM4.20544 10.1139L6.69491 11.482L6.72858 8.58813L4.2389 7.21986L4.20544 10.1139ZM13.2712 8.58792L13.3051 11.482L15.7946 10.1139L15.7607 7.22006L13.2712 8.58792ZM1.62419 8.69528L3.83894 9.91245L3.87241 7.0186L1.65786 5.80162L1.62419 8.69528ZM16.1272 7.0186L16.1611 9.91245L18.3756 8.69548L18.3421 5.80162L16.1272 7.0186ZM7.86542 8.43723L10.0512 9.70317L12.2368 8.43723L10.0516 7.1715L7.86542 8.43723ZM5.04641 6.8047L7.50386 8.22775L9.68987 6.96181L7.23263 5.53876L5.04641 6.8047ZM10.4132 6.96181L12.5986 8.22775L15.0556 6.8047L12.8704 5.53896L10.4132 6.96181ZM7.5944 5.32928L10.0516 6.75233L12.5087 5.32928L10.0514 3.90623L7.5944 5.32928ZM2.13728 5.11979L4.68485 6.59521L6.87086 5.32928L4.32308 3.85366L2.13728 5.11979ZM13.232 5.32928L15.4174 6.59521L17.9652 5.11979L15.7794 3.85386L13.232 5.32928ZM4.68485 3.64417L7.23263 5.11979L9.68966 3.69675L7.14188 2.22132L4.68485 3.64417ZM10.4132 3.69675L12.8704 5.11979L15.4176 3.64437L12.9606 2.22132L10.4132 3.69675ZM7.50365 2.01164L10.0514 3.48726L12.5988 2.01184L10.0512 0.53642L7.50365 2.01164Z" fill="black"/>
</svg>
